<svg width="51" height="47" viewBox="0 0 51 47" fill="none" xmlns="http://www.w3.org/2000/svg">
<path d="M13.299 34L8.525 25.568H6.479V34H2.139V12.362H10.261C11.935 12.362 13.361 12.6617 14.539 13.261C15.717 13.8397 16.5953 14.6353 17.174 15.648C17.7733 16.64 18.073 17.756 18.073 18.996C18.073 20.422 17.6597 21.7137 16.833 22.871C16.0063 24.0077 14.7767 24.793 13.144 25.227L18.321 34H13.299ZM6.479 22.313H10.106C11.284 22.313 12.1623 22.034 12.741 21.476C13.3197 20.8973 13.609 20.1017 13.609 19.089C13.609 18.097 13.3197 17.3323 12.741 16.795C12.1623 16.237 11.284 15.958 10.106 15.958H6.479V22.313ZM35.2664 29.877H26.6484L25.2224 34H20.6654L28.4464 12.331H33.4994L41.2804 34H36.6924L35.2664 29.877ZM34.0884 26.405L30.9574 17.353L27.8264 26.405H34.0884ZM46.1108 34.217C45.3255 34.217 44.6745 33.9793 44.1578 33.504C43.6618 33.008 43.4138 32.3983 43.4138 31.675C43.4138 30.9517 43.6618 30.3523 44.1578 29.877C44.6745 29.381 45.3255 29.133 46.1108 29.133C46.8755 29.133 47.5058 29.381 48.0018 29.877C48.4978 30.3523 48.7458 30.9517 48.7458 31.675C48.7458 32.3983 48.4978 33.008 48.0018 33.504C47.5058 33.9793 46.8755 34.217 46.1108 34.217Z" fill="#b673f8"/>
</svg>
